<?xml version="1.0" encoding="UTF-8" standalone="no"?>
<!-- Created with Inkscape (http://www.inkscape.org/) -->
<svg
   xmlns:svg="http://www.w3.org/2000/svg"
   xmlns="http://www.w3.org/2000/svg"
   version="1.0"
   width="170"
   height="180"
   id="svg3155">
  <defs
     id="defs3157" />
  <path
     d="M 157.8825,128.16375 C 151.3525,124.44875 146.91125,122.73625 141.57,121.14625 C 135.27,119.27 128.7225,117.27375 120.52,111.035 C 111.505,104.1725 106.09,92.14375 105.0125,88.46 C 108.6925,87.84625 115.3225,92.07875 119.88875,92.65375 C 129.03125,93.80125 130.41875,101.48625 134.79125,107.38125 C 139.4125,113.61 152.5175,112.83875 159.36125,114.39875 C 162.1125,104.86125 169.6325,98.23375 168.435,87.44875 C 167.245,86.1075 166.03875,84.55 164.575,83.4875 C 161.86625,82.9 147.95875,69.27875 146.8925,66.23625 C 144.06375,58.1725 136.3625,54.2 133.34125,45.93375 L 133.2175,46.0875 L 132.93875,44.205 C 126.55375,38.35625 103.78125,19.65125 96.96375,16.1025 L 96.7075,16.1625 L 95.00375,15.57875 C 93.22125,15 91.49625,14.62625 89.625,14.5025 L 85.24875,14.22375 C 76.9225,2.03 74.32125,7.73 62.8175,0.5 C 63.92375,3.085 65.95125,6.61125 67.5125,9.375 C 47.8175,8.33375 36.035,22.82875 24.8125,22.87125 C 26.565,23.885 28.77375,24.45625 30.78625,24.21 C 25.09875,29.89125 16.3475,43.2325 7.79375,43.3075 C 12.99125,47.48 19.60125,45.355 19.60125,45.355 C 15.15,59.1 17.065,68.9625 0.25,75.2775 C 9.1525,77.3725 12.02375,76.77 18.04625,73.89 C 20.5725,86.12125 20.30375,99.85 7.465,106.4625 C 11.305,106.1275 19.05,105.565 23.83625,100.25625 C 24.60625,116.27125 16.03125,121.6275 5.025,127.4825 C 35.875,133.545 54.75625,136.66875 81.725,145.83125 C 108.6925,136.66875 127.035,134.22375 157.8825,128.16375"
     id="path2680"
     style="fill:#fbbf15;fill-opacity:1;fill-rule:nonzero;stroke:none" />
  <path
     d="M 73.13871,11.10514 L 79.73246,23.19889 C 78.93246,24.97889 78.3312,26.93263 77.57621,28.73014 C 76.81871,30.53514 75.88497,32.19265 74.45121,33.41764 L 74.13871,33.69889 L 74.26371,33.29264 C 74.72246,31.80014 75.07621,31.11264 75.63871,28.82389 C 75.63871,28.80889 76.75371,24.36639 75.98246,22.23014 C 75.27121,20.24764 74.32496,18.87638 72.32621,18.35514 C 68.04871,17.24264 65.00247,18.89515 60.66996,21.23014 C 49.45871,27.27389 42.18245,36.36014 39.73246,48.16764 C 36.70621,62.74889 42.16996,81.85388 42.16996,81.85514 L 41.95121,81.94889 C 36.35121,72.09264 31.34497,50.12514 40.16996,33.32389 C 43.64996,26.70639 49.20496,22.14889 53.88871,19.26139 C 56.44496,17.68514 58.7662,16.6089 60.32621,15.94889 C 46.40121,19.84139 38.40997,25.10638 33.66996,30.16764 C 31.18246,32.82389 29.57997,35.43514 28.48246,37.76139 C 27.38746,40.09264 26.7787,42.14764 26.29496,43.69889 C 23.45246,52.80514 24.4962,63.2789 26.29496,72.29264 C 27.19246,76.79764 28.26871,80.94014 29.16996,84.35514 C 30.06996,87.76764 30.78495,90.47138 30.91996,92.10514 C 32.40371,103.66264 32.73496,115.18263 18.16996,125.98014 C 41.72746,131.18389 58.81245,135.41264 81.73246,143.19889 C 104.17621,135.57264 120.74622,131.73389 143.45121,126.79264 C 138.29746,126.15139 135.70995,125.8989 133.79496,125.69889 C 131.79371,125.49264 130.53745,125.34139 127.91996,124.94889 C 119.99621,123.76014 108.45872,123.01514 100.60746,122.23014 C 97.58996,121.83764 94.35621,121.44764 90.45121,120.51139 C 86.54371,119.57014 81.95497,118.06013 76.20121,115.38639 C 76.17371,115.36639 73.21247,113.98263 68.98246,111.04264 C 64.74496,108.10264 59.21747,103.59264 54.20121,97.23014 C 59.27496,100.73764 64.91371,104.58889 71.26371,108.44889 C 74.19246,110.23014 77.60996,111.71514 80.73246,112.88639 C 83.85371,114.05514 86.66997,114.92639 88.35746,115.51139 C 94.80246,117.21139 100.71245,118.06638 116.32621,119.26139 C 118.53371,119.43014 120.47622,119.72638 128.04496,120.88639 C 125.57121,119.56389 123.89746,118.68515 122.32621,117.73014 C 120.62871,116.69514 119.0637,115.56764 116.66996,113.69889 C 114.86996,112.29764 113.5262,110.89264 112.51371,109.66764 C 111.51871,108.46514 110.82371,107.45389 110.32621,106.76139 C 107.99496,106.51514 100.7587,105.25889 94.63871,99.13639 L 94.76371,98.94889 C 94.76371,98.94889 96.29995,99.84764 98.66996,100.73014 C 101.03621,101.60889 104.22371,102.47764 107.63871,102.48014 L 106.32621,99.63639 L 105.51371,98.23014 C 105.19621,98.15889 102.72622,97.55264 99.16996,95.85514 C 95.35496,94.03139 90.2837,90.92763 85.48246,85.60514 C 85.48871,85.61389 95.8337,93.38639 102.66996,93.38639 L 103.13871,93.41764 C 102.28496,91.55389 101.50122,89.67264 100.79496,87.82389 L 100.07621,86.29264 C 90.40621,77.88014 81.51121,66.48638 77.07621,55.13639 L 77.29496,55.01139 L 77.70121,55.54264 C 78.01871,56.07014 78.3687,56.60139 78.70121,57.13639 C 87.95496,71.02639 101.46622,87.0489 117.85746,88.32389 C 120.00121,87.16514 120.9737,84.99014 121.41996,82.48014 C 121.64996,81.21514 121.75995,79.86764 121.79496,78.54264 C 121.82246,77.21139 121.79495,75.90514 121.79496,74.69889 L 122.01371,74.66764 C 122.43621,75.85014 122.81495,77.0839 123.10746,78.35514 C 123.23621,78.87514 123.34495,79.40389 123.41996,79.91764 C 123.95871,82.98889 123.97745,86.11139 123.23246,88.73014 C 123.95121,89.63514 124.90122,90.39264 125.95121,91.07389 L 128.26371,92.41764 C 129.92871,93.31764 137.83996,101.67888 136.63871,104.76139 C 136.80371,105.09639 136.99622,105.42765 137.16996,105.73014 C 141.85371,109.86264 151.09995,110.16764 151.10746,110.16764 C 151.12996,110.16764 156.95873,110.35764 157.88871,109.98014 C 159.24371,109.43889 163.89872,97.03389 163.91996,96.98014 C 164.11246,96.31514 163.99619,95.77889 163.66996,95.32389 L 163.48246,95.32389 L 163.01371,95.13639 C 162.67996,95.01889 162.2762,94.88888 162.07621,94.69889 C 160.40246,93.13139 158.35497,89.55139 164.76371,89.54264 C 164.94996,89.45389 165.60995,89.11138 164.76371,88.73014 C 164.76371,88.73014 163.12621,88.02388 161.35746,86.98014 C 159.60996,85.94764 157.6887,84.53889 157.01371,83.16764 C 156.92621,83.06014 156.03372,82.03639 155.63871,83.04264 C 155.17996,84.22139 156.92996,88.74515 156.95121,88.82389 C 156.95121,88.82639 156.92744,91.35764 157.70121,92.98014 L 157.79496,93.16764 L 157.57621,93.13639 C 157.31121,93.11514 157.1112,93.13514 157.07621,93.10514 C 155.48371,91.64764 154.24873,88.86139 153.10746,85.91764 C 152.53871,84.44389 151.97368,82.90889 151.41996,81.48014 C 150.86621,80.06014 150.32373,78.73139 149.73246,77.63639 C 149.47746,77.16639 149.18496,76.72389 148.91996,76.35514 C 148.11621,75.16639 147.72872,74.58639 147.16996,73.57389 C 146.90996,73.09389 146.59624,72.5414 146.20121,71.73014 C 144.61621,68.79639 144.21745,66.15514 142.57621,63.10514 C 140.94746,60.07639 138.10495,56.62139 131.66996,52.04264 C 131.04746,51.57264 128.89621,49.82639 128.76371,49.48014 L 129.32621,48.85514 C 129.37746,48.77764 129.41997,48.65139 129.41996,48.54264 C 129.41996,48.33514 128.73746,47.85014 128.70121,47.82389 C 124.66996,44.43514 121.55122,41.12638 118.45121,38.63639 C 115.35871,36.15639 112.31122,34.51014 108.41996,34.38639 C 107.27621,34.38639 105.28995,34.3914 103.10746,34.13639 C 100.92496,33.88264 98.54495,33.37888 96.63871,32.35514 L 96.23246,32.13639 L 99.54496,32.04264 C 100.16871,31.93139 107.4862,31.28515 109.76371,31.35514 C 108.39246,30.63889 106.71371,29.99014 104.88871,29.35514 C 102.82496,28.64014 100.5687,27.92514 98.26371,27.07389 C 93.63746,25.37264 88.82747,23.14389 85.23246,19.32389 C 84.73496,18.58014 84.02245,18.05139 83.13871,17.60514 C 82.25121,17.15389 81.2012,16.78014 80.04496,16.26139 C 77.96996,15.32889 75.5637,13.97139 73.13871,11.10514 z M 106.63871,44.19889 L 116.95121,47.10514 L 118.16996,50.51139 L 116.98246,50.88639 L 115.66996,51.29264 L 106.63871,44.19889 z"
     id="path2682"
     style="fill:#760135;fill-opacity:1;fill-rule:nonzero;stroke:none" />
  <path
     d="M 57.48246,151.41764 C 51.64621,151.41764 46.79495,153.74764 46.79496,158.07389 C 46.79496,162.39639 51.64621,164.6989 57.48246,164.69889 C 63.31746,164.69889 68.20122,162.39639 68.20121,158.07389 C 68.20121,153.74764 63.31746,151.41763 57.48246,151.41764 z M 104.01371,151.41764 C 98.52246,151.41764 92.66996,153.64764 92.66996,158.07389 C 92.66996,162.49639 98.52245,164.6989 104.01371,164.69889 C 109.12871,164.69889 112.29495,163.35514 112.98246,163.35514 C 113.21996,163.35514 113.37745,163.39638 113.48246,163.57389 L 113.88871,163.38639 L 110.35746,159.51139 L 109.98246,159.69889 C 110.05121,159.82514 110.16996,159.89639 110.16996,160.04264 C 110.16996,160.76139 105.61872,161.44888 104.41996,161.44889 C 101.63996,161.44889 98.01371,160.59264 98.01371,158.07389 C 98.01371,155.55139 101.63997,154.66765 104.41996,154.66764 C 107.33371,154.66764 109.98245,155.32889 109.98246,155.82389 C 109.98246,155.99389 109.95495,156.07014 109.91996,156.16764 L 110.26371,156.35514 L 113.32621,152.26139 L 112.95121,152.19889 C 112.81121,152.32389 112.6612,152.38639 112.45121,152.38639 C 112.10996,152.38639 111.41372,152.18764 110.07621,151.91764 C 108.69871,151.64514 106.7587,151.41763 104.01371,151.41764 z M 124.88871,151.41764 C 119.05871,151.41764 114.2012,153.74764 114.20121,158.07389 C 114.20121,162.39639 119.0587,164.6989 124.88871,164.69889 C 130.72746,164.69889 135.60746,162.39639 135.60746,158.07389 C 135.60746,153.74764 130.72745,151.41763 124.88871,151.41764 z M 144.98246,151.41764 C 139.93371,151.41764 136.63872,153.10264 136.63871,155.57389 C 136.63871,160.34639 150.79498,158.33763 150.79496,160.16764 C 150.79496,161.25514 149.22499,161.82389 145.79496,161.82389 C 142.22371,161.82389 138.5762,160.71014 138.57621,160.04264 C 138.57621,159.82139 138.56872,159.66638 138.63871,159.54264 L 138.29496,159.41764 L 135.76371,163.82389 L 136.16996,163.88639 C 136.37246,163.73514 136.58245,163.57388 136.85746,163.57389 C 137.64746,163.57389 140.19123,164.6989 145.91996,164.69889 C 153.36996,164.69889 155.60745,162.35765 155.60746,160.23014 C 155.60746,154.54514 141.3887,157.2364 141.38871,155.04264 C 141.38871,154.47014 142.40246,153.88638 145.38871,153.88639 C 148.61496,153.88639 152.54498,154.58513 152.54496,155.19889 L 152.54496,155.44889 L 152.95121,155.60514 L 155.32621,152.16764 L 154.95121,152.07389 C 154.70621,152.26889 154.45997,152.4489 154.01371,152.44889 C 153.08746,152.44889 149.68497,151.41763 144.98246,151.41764 z M 4.07621,151.57389 L 4.07621,151.85514 C 4.93371,151.90389 5.04497,152.07015 5.04496,152.29264 L 5.04496,163.82389 C 5.04496,164.04639 4.93371,164.21513 4.07621,164.26139 L 4.07621,164.54264 L 17.32621,164.54264 C 22.20121,164.54264 24.26372,162.86139 24.26371,160.88639 C 24.26371,159.05389 22.5937,158.1764 20.29496,157.73014 L 20.29496,157.69889 C 22.21496,157.40389 23.57621,156.46264 23.57621,154.98014 C 23.57621,152.53514 20.87745,151.57389 17.16996,151.57389 L 4.07621,151.57389 z M 26.04496,151.57389 L 26.04496,151.85514 C 26.90371,151.90389 27.01372,152.07015 27.01371,152.29264 L 27.01371,163.82389 C 27.01371,164.04639 26.90371,164.21513 26.04496,164.26139 L 26.04496,164.54264 L 33.10746,164.54264 L 33.10746,164.26139 C 32.24996,164.21514 32.16995,164.04638 32.16996,163.82389 L 32.16996,159.66764 L 35.51371,159.66764 C 35.95746,160.18764 39.60747,163.60513 39.60746,163.82389 C 39.60746,164.12139 39.33622,164.23888 38.85746,164.26139 L 38.85746,164.54264 L 45.98246,164.54264 L 45.98246,164.26139 C 45.60371,164.26139 45.29245,164.14388 44.98246,163.82389 L 40.95121,159.69889 C 43.79871,159.13139 45.85747,157.94263 45.85746,155.66764 C 45.85746,152.85264 43.68871,151.57389 38.60746,151.57389 L 26.04496,151.57389 z M 69.70121,151.57389 L 69.70121,151.85514 C 70.56246,151.90389 70.66997,152.07015 70.66996,152.29264 L 70.66996,163.82389 C 70.66996,164.04639 70.56246,164.21513 69.70121,164.26139 L 69.70121,164.54264 L 76.23246,164.54264 L 76.23246,164.26139 C 75.37496,164.21514 75.26371,164.04638 75.26371,163.82389 L 75.26371,156.04264 C 84.32746,163.33639 85.2012,163.66015 85.20121,163.98014 C 85.20121,164.15264 85.03745,164.26138 84.41996,164.26139 L 84.41996,164.54264 L 90.91996,164.54264 L 90.91996,164.26139 C 90.05871,164.21514 89.95121,164.04638 89.95121,163.82389 L 89.95121,152.29264 C 89.95121,152.07014 90.05871,151.9039 90.91996,151.85514 L 90.91996,151.57389 L 84.63871,151.57389 L 84.63871,151.85514 C 85.08496,151.88139 85.35746,151.99515 85.35746,152.29264 L 85.35746,158.88639 C 82.95371,156.98514 77.01371,152.44015 77.01371,152.16764 C 77.01371,152.01889 77.19247,151.8814 77.98246,151.85514 L 77.98246,151.57389 L 69.70121,151.57389 z M 10.20121,154.16764 L 14.85746,154.16764 C 17.80996,154.16764 18.5762,154.33388 18.57621,155.32389 C 18.57621,156.31264 17.80997,156.4489 14.85746,156.44889 L 10.20121,156.44889 L 10.20121,154.16764 z M 32.16996,154.32389 L 37.91996,154.32389 C 39.94621,154.32389 40.5762,154.98014 40.57621,155.69889 C 40.57621,156.41514 39.94621,157.04265 37.91996,157.04264 L 32.16996,157.04264 L 32.16996,154.32389 z M 57.48246,154.41764 C 60.46746,154.41764 63.10745,155.74889 63.10746,158.07389 C 63.10746,160.39764 60.46746,161.69888 57.48246,161.69889 C 54.49621,161.69889 51.85746,160.39764 51.85746,158.07389 C 51.85746,155.74889 54.49621,154.41765 57.48246,154.41764 z M 124.88871,154.41764 C 127.87746,154.41764 130.54495,155.74889 130.54496,158.07389 C 130.54496,160.39764 127.87745,161.69888 124.88871,161.69889 C 121.90621,161.69889 119.2637,160.39764 119.26371,158.07389 C 119.26371,155.74889 121.9062,154.41765 124.88871,154.41764 z M 10.20121,158.98014 L 16.01371,158.98014 C 18.41746,158.98014 19.38872,159.36265 19.38871,160.44889 C 19.38871,161.54139 18.41745,161.94888 16.01371,161.94889 L 10.20121,161.94889 L 10.20121,158.98014 z M 133.91996,168.48014 C 133.86246,168.80014 133.78995,168.85515 133.57621,168.85514 L 123.88871,168.85514 L 123.88871,169.01139 C 124.37496,169.04139 124.41996,169.13764 124.41996,169.26139 L 124.41996,175.79264 C 124.41996,175.91889 124.37495,176.02013 123.88871,176.04264 L 123.88871,176.19889 L 133.57621,176.19889 C 133.78996,176.19889 133.86247,176.27265 133.91996,176.51139 L 134.13871,176.51139 L 134.13871,174.07389 L 133.91996,174.07389 C 133.86246,174.42514 133.78995,174.51138 133.57621,174.51139 L 127.32621,174.51139 L 127.32621,173.19889 L 130.95121,173.19889 C 131.34246,173.19889 131.45871,173.32764 131.51371,173.51139 L 131.76371,173.51139 L 131.76371,171.35514 L 131.51371,171.35514 C 131.45871,171.53889 131.34247,171.66765 130.95121,171.66764 L 127.32621,171.66764 L 127.32621,170.51139 L 133.57621,170.51139 C 133.78996,170.51139 133.86247,170.56514 133.91996,170.88639 L 134.13871,170.88639 L 134.13871,168.48014 L 133.91996,168.48014 z M 68.35746,168.76139 C 65.50621,168.76139 63.6387,169.74141 63.63871,171.13639 C 63.63871,173.83389 71.63871,172.69888 71.63871,173.73014 C 71.63871,174.34889 70.77246,174.66765 68.82621,174.66764 C 66.80871,174.66764 64.73246,174.04641 64.73246,173.66764 C 64.73246,173.54139 64.72495,173.42389 64.76371,173.35514 L 64.57621,173.29264 L 63.13871,175.79264 L 63.38871,175.82389 C 63.50496,175.74264 63.60871,175.63639 63.76371,175.63639 C 64.20996,175.63639 65.64871,176.29265 68.88871,176.29264 C 73.09996,176.29264 74.35746,174.96015 74.35746,173.76139 C 74.35746,170.54389 66.32621,172.06515 66.32621,170.82389 C 66.32621,170.50389 66.91872,170.16765 68.60746,170.16764 C 70.43246,170.16764 72.63872,170.56888 72.63871,170.91764 L 72.63871,171.07389 L 72.85746,171.16764 L 74.20121,169.19889 L 73.98246,169.16764 C 73.84996,169.27764 73.73372,169.35515 73.48246,169.35514 C 72.95496,169.35514 71.01996,168.76139 68.35746,168.76139 z M 25.35746,168.85514 L 25.35746,169.01139 C 25.84121,169.04139 25.88871,169.13764 25.88871,169.26139 L 25.88871,175.79264 C 25.88871,175.91889 25.84122,176.02013 25.35746,176.04264 L 25.35746,176.19889 L 32.85746,176.19889 C 35.61621,176.19889 36.76371,175.2564 36.76371,174.13639 C 36.76371,173.10639 35.81246,172.60638 34.51371,172.35514 L 34.51371,172.32389 C 35.60121,172.15889 36.3887,171.62889 36.38871,170.79264 C 36.38871,169.40264 34.8612,168.85515 32.76371,168.85514 L 25.35746,168.85514 z M 40.41996,168.85514 L 40.41996,169.01139 C 40.90621,169.04139 40.95121,169.13764 40.95121,169.26139 L 40.95121,175.79264 C 40.95121,175.91889 40.90622,176.02013 40.41996,176.04264 L 40.41996,176.19889 L 44.41996,176.19889 L 44.41996,176.04264 C 43.93621,176.02014 43.85745,175.91888 43.85746,175.79264 L 43.85746,173.44889 L 45.76371,173.44889 C 46.01621,173.74639 48.07621,175.67013 48.07621,175.79264 C 48.07621,175.96264 47.9412,176.03138 47.66996,176.04264 L 47.66996,176.19889 L 51.70121,176.19889 L 51.70121,176.04264 C 51.48746,176.04264 51.31247,175.97638 51.13871,175.79264 L 48.85746,173.48014 C 50.46621,173.15389 51.60746,172.45264 51.60746,171.16764 C 51.60746,169.57014 50.38621,168.85515 47.51371,168.85514 L 40.41996,168.85514 z M 55.60746,168.85514 L 55.60746,169.01139 C 56.09371,169.04139 56.16995,169.13764 56.16996,169.26139 L 56.16996,175.79264 C 56.16996,175.91889 56.09371,176.02013 55.60746,176.04264 L 55.60746,176.19889 L 59.60746,176.19889 L 59.60746,176.04264 C 59.12246,176.02014 59.07622,175.91888 59.07621,175.79264 L 59.07621,169.26139 C 59.07621,169.13764 59.12246,169.04139 59.60746,169.01139 L 59.60746,168.85514 L 55.60746,168.85514 z M 77.76371,168.85514 L 77.76371,169.01139 C 78.24871,169.04139 78.29496,169.13764 78.29496,169.26139 L 78.29496,175.79264 C 78.29496,175.91889 78.24872,176.02013 77.76371,176.04264 L 77.76371,176.19889 L 85.26371,176.19889 C 88.02121,176.19889 89.16996,175.2564 89.16996,174.13639 C 89.16996,173.10639 88.21746,172.60638 86.91996,172.35514 L 86.91996,172.32389 C 88.00621,172.15889 88.79495,171.62889 88.79496,170.79264 C 88.79496,169.40264 87.2637,168.85515 85.16996,168.85514 L 77.76371,168.85514 z M 95.60746,168.85514 L 95.60746,169.01139 C 95.78121,169.03014 96.01372,169.07138 96.01371,169.16764 C 96.01371,169.25264 92.72121,175.41138 92.54496,175.73014 C 92.42871,175.95514 92.31621,176.00138 92.04496,176.04264 L 92.04496,176.19889 L 95.48246,176.19889 L 95.48246,176.04264 C 95.20746,176.04264 95.13872,175.97389 95.13871,175.88639 C 95.13871,175.80264 95.2612,175.62764 95.76371,174.60514 L 100.35746,174.60514 C 100.43371,174.78639 101.01372,175.82889 101.01371,175.88639 C 101.01371,175.97014 100.90996,176.03138 100.63871,176.04264 L 100.63871,176.19889 L 104.48246,176.19889 L 104.48246,176.04264 C 104.24996,176.04264 104.11246,175.94264 103.91996,175.60514 C 102.71621,173.48139 100.3262,169.31265 100.32621,169.19889 C 100.32621,169.06139 100.48495,169.03014 100.70121,169.01139 L 100.70121,168.85514 L 95.60746,168.85514 z M 107.82621,168.85514 L 107.82621,169.01139 C 108.30996,169.04139 108.35747,169.13764 108.35746,169.26139 L 108.35746,175.79264 C 108.35746,175.91889 108.30995,176.02013 107.82621,176.04264 L 107.82621,176.19889 L 111.51371,176.19889 L 111.51371,176.04264 C 111.03246,176.02014 110.95122,175.91888 110.95121,175.79264 L 110.95121,171.38639 C 116.07746,175.50764 116.5762,175.70765 116.57621,175.88639 C 116.57621,175.98639 116.45996,176.04263 116.10746,176.04264 L 116.10746,176.19889 L 119.79496,176.19889 L 119.79496,176.04264 C 119.30746,176.02014 119.26372,175.91888 119.26371,175.79264 L 119.26371,169.26139 C 119.26371,169.13764 119.30746,169.04139 119.79496,169.01139 L 119.79496,168.85514 L 116.26371,168.85514 L 116.26371,169.01139 C 116.51746,169.03014 116.66997,169.09639 116.66996,169.26139 L 116.66996,173.01139 C 115.30871,171.93764 111.95122,169.35765 111.95121,169.19889 C 111.95121,169.11764 112.03621,169.03014 112.48246,169.01139 L 112.48246,168.85514 L 107.82621,168.85514 z M 97.98246,170.16764 L 99.85746,173.48014 L 96.23246,173.48014 L 97.98246,170.16764 z M 28.82621,170.32389 L 31.45121,170.32389 C 33.12246,170.32389 33.54496,170.4189 33.54496,170.98014 C 33.54496,171.53764 33.12247,171.63638 31.45121,171.63639 L 28.82621,171.63639 L 28.82621,170.32389 z M 81.23246,170.32389 L 83.85746,170.32389 C 85.52371,170.32389 85.95122,170.4189 85.95121,170.98014 C 85.95121,171.53764 85.52372,171.63638 83.85746,171.63639 L 81.23246,171.63639 L 81.23246,170.32389 z M 43.85746,170.41764 L 47.13871,170.41764 C 48.28496,170.41764 48.6387,170.79263 48.63871,171.19889 C 48.63871,171.60639 48.28497,171.94889 47.13871,171.94889 L 43.85746,171.94889 L 43.85746,170.41764 z M 28.82621,173.04264 L 32.10746,173.04264 C 33.46746,173.04264 34.01372,173.27015 34.01371,173.88639 C 34.01371,174.50264 33.46747,174.73013 32.10746,174.73014 L 28.82621,174.73014 L 28.82621,173.04264 z M 81.23246,173.04264 L 84.51371,173.04264 C 85.86871,173.04264 86.41996,173.27015 86.41996,173.88639 C 86.41996,174.50264 85.86871,174.73013 84.51371,174.73014 L 81.23246,174.73014 L 81.23246,173.04264 z"
     id="path2686"
     style="fill:#760135;fill-opacity:1;fill-rule:nonzero;stroke:none" />
</svg>
